<svg xmlns="http://www.w3.org/2000/svg" width="current" height="current" viewBox="0 0 48 49" fill="none">
<path d="M46.6902 10.772C44.0764 9.53568 38.1322 7.12719 34.6798 8.85548C34.5216 8.24373 34.2863 7.60418 34.0339 6.9304C31.8906 1.21718 21.324 2.69736 17.4375 3.45242C16.83 3.57006 16.5477 4.28234 16.9135 4.78072C18.7508 7.28547 18.8428 10.6886 23.3497 14.2072C24.6352 15.2104 26.6116 15.3708 28.3827 15.1676L17.8354 32.5982C17.4482 33.2399 17.6535 34.0741 18.2931 34.4612L20.9625 36.0762C21.6042 36.4633 22.4384 36.258 22.8256 35.6184L34.1152 16.9622C35.5654 17.9077 38.2049 18.913 40.0209 18.1322C44.1769 16.3462 45.0347 13.7837 46.8806 12.1773C47.3426 11.7752 47.2464 11.033 46.6924 10.7699L46.6902 10.772Z" fill="#36AE5A"/>
<path d="M41.0647 21.7557C40.7332 21.084 39.9204 20.8081 39.2487 21.1397L36.4509 22.5214C35.7793 22.853 35.5034 23.6658 35.8349 24.3374L37.1696 27.0368C37.3686 27.4411 37.3557 27.9181 37.1311 28.3117L29.8779 41.0065C29.5057 41.6568 29.7324 42.4846 30.3827 42.8567L33.0906 44.4054C33.7408 44.7775 34.5686 44.5508 34.9408 43.9006L43.7342 28.5106C43.9588 28.1192 43.9716 27.6422 43.7727 27.2358L41.0626 21.7535L41.0647 21.7557Z" fill="#2E2E30"/>
<path d="M17.4613 14.5644C17.8335 13.9142 17.6068 13.0864 16.9565 12.7142L14.2486 11.1656C13.5983 10.7934 12.7705 11.0201 12.3983 11.6704L3.57504 27.1138C3.33762 27.5309 3.33762 28.0422 3.57504 28.4593L12.3983 43.9027C12.7705 44.553 13.5983 44.7797 14.2486 44.4075L16.9565 42.8589C17.6068 42.4867 17.8335 41.6589 17.4613 41.0087L10.2914 28.4593C10.054 28.0422 10.054 27.5309 10.2914 27.1138L17.4613 14.5644Z" fill="#2E2E30"/>
</svg>